<svg width="161" height="122" viewBox="0 0 161 122" fill="none" xmlns="http://www.w3.org/2000/svg">
<g clip-path="url(#clip0_28_3693)">
<path d="M64.5239 25.2445H63.9403V9.25457C63.9403 8.03924 63.7009 6.83582 63.2358 5.713C62.7707 4.59019 62.089 3.56997 61.2297 2.7106C60.3703 1.85124 59.3501 1.16955 58.2273 0.704465C57.1045 0.239379 55.901 1.02972e-06 54.6857 0H20.8088C18.3543 -4.67904e-06 16.0004 0.975021 14.2648 2.71058C12.5292 4.44615 11.5542 6.80008 11.5542 9.25454V96.9768C11.5542 98.1921 11.7936 99.3955 12.2587 100.518C12.7237 101.641 13.4054 102.661 14.2648 103.521C15.1242 104.38 16.1444 105.062 17.2672 105.527C18.39 105.992 19.5934 106.231 20.8087 106.231H54.6857C57.1401 106.231 59.4941 105.256 61.2296 103.521C62.9652 101.785 63.9402 99.4313 63.9402 96.9768V36.6265H64.5239V25.2445Z" fill="#3F3D56"/>
<path d="M55.0592 2.40771H50.6371C50.8405 2.90629 50.9181 3.44722 50.8632 3.98286C50.8082 4.51849 50.6224 5.0324 50.3221 5.47931C50.0217 5.92621 49.6161 6.29239 49.1409 6.5456C48.6657 6.79881 48.1355 6.93126 47.5971 6.93131H28.1894C27.651 6.93127 27.1208 6.79881 26.6456 6.5456C26.1704 6.2924 25.7647 5.92621 25.4644 5.47931C25.1641 5.03241 24.9782 4.5185 24.9233 3.98286C24.8683 3.44722 24.946 2.90629 25.1493 2.40771H21.0191C20.1115 2.40771 19.2128 2.58648 18.3743 2.9338C17.5358 3.28112 16.7739 3.79019 16.1322 4.43196C15.4904 5.07372 14.9813 5.83561 14.634 6.67411C14.2867 7.51262 14.1079 8.41132 14.1079 9.31891V96.9124C14.1079 97.82 14.2867 98.7187 14.634 99.5572C14.9813 100.396 15.4904 101.158 16.1322 101.799C16.7739 102.441 17.5358 102.95 18.3743 103.298C19.2128 103.645 20.1115 103.824 21.0191 103.824H55.0592C55.9668 103.824 56.8655 103.645 57.704 103.298C58.5425 102.95 59.3044 102.441 59.9461 101.799C60.5879 101.158 61.097 100.396 61.4443 99.5572C61.7916 98.7187 61.9704 97.82 61.9704 96.9124V9.31891C61.9704 8.41132 61.7916 7.51262 61.4443 6.67411C61.097 5.8356 60.5879 5.07372 59.9461 4.43196C59.3044 3.79019 58.5425 3.28112 57.704 2.9338C56.8655 2.58648 55.9668 2.40771 55.0592 2.40771Z" fill="white"/>
<path d="M75.3822 106.246H0.696027C0.644037 106.246 0.594177 106.226 0.557415 106.189C0.520653 106.152 0.5 106.102 0.5 106.05C0.5 105.998 0.520653 105.949 0.557415 105.912C0.594177 105.875 0.644037 105.854 0.696027 105.854H75.3822C75.4342 105.854 75.4841 105.875 75.5208 105.912C75.5576 105.949 75.5782 105.998 75.5782 106.05C75.5782 106.102 75.5576 106.152 75.5208 106.189C75.4841 106.226 75.4342 106.246 75.3822 106.246Z" fill="#CBCBCB"/>
<path d="M38.0391 67.7625C47.1814 67.7625 54.5928 60.3511 54.5928 51.2087C54.5928 42.0664 47.1814 34.655 38.0391 34.655C28.8967 34.655 21.4854 42.0664 21.4854 51.2087C21.4854 60.3511 28.8967 67.7625 38.0391 67.7625Z" fill="#34B826"/>
<path d="M36.3987 57.5235C36.0263 57.5241 35.6638 57.4036 35.3658 57.1802L35.3474 57.1664L31.457 54.1904C31.2768 54.0522 31.1256 53.88 31.012 53.6834C30.8984 53.4868 30.8246 53.2698 30.7949 53.0447C30.7652 52.8197 30.7801 52.5909 30.8387 52.3716C30.8974 52.1523 30.9987 51.9467 31.1368 51.7665C31.275 51.5863 31.4472 51.4351 31.6438 51.3215C31.8404 51.2079 32.0574 51.1341 32.2825 51.1044C32.5076 51.0747 32.7363 51.0895 32.9556 51.1482C33.1749 51.2069 33.3806 51.3082 33.5607 51.4463L36.0806 53.3786L42.0351 45.6103C42.1732 45.4302 42.3454 45.279 42.5419 45.1655C42.7384 45.0519 42.9553 44.9782 43.1803 44.9485C43.4053 44.9188 43.6339 44.9336 43.8531 44.9923C44.0724 45.0509 44.2779 45.1522 44.458 45.2903L44.4585 45.2906L44.4216 45.342L44.4595 45.2906C44.8229 45.5699 45.0606 45.9819 45.1205 46.4362C45.1805 46.8905 45.0577 47.3501 44.7792 47.714L37.7753 56.8472C37.6133 57.0577 37.405 57.228 37.1665 57.3449C36.928 57.4618 36.6658 57.5222 36.4002 57.5214L36.3987 57.5235Z" fill="white"/>
<path d="M136.59 107.874C136.792 107.548 137.029 107.246 137.297 106.973C137.408 106.858 137.525 106.75 137.645 106.645C138.377 105.993 139.269 105.548 140.23 105.356C141.191 105.164 142.186 105.231 143.112 105.55C144.038 105.87 144.863 106.43 145.5 107.174C146.138 107.918 146.567 108.818 146.741 109.782C147.55 106.793 145.445 103.848 143.329 101.585C141.212 99.3241 138.792 96.8434 138.805 93.7447C138.81 92.0205 139.654 90.4823 140.927 89.3419C140.967 89.3074 141.006 89.2729 141.046 89.2396C142.585 87.9202 144.565 87.2301 146.591 87.3071C150.355 87.5087 153.641 90.0381 155.923 93.0384C159.596 97.866 161.206 104.643 158.634 110.138C156.372 114.971 151.548 117.842 146.625 120.149C145.937 120.471 145.251 120.784 144.566 121.087C144.562 121.088 144.557 121.091 144.552 121.092C144.519 121.107 144.486 121.121 144.456 121.136C144.314 121.198 144.173 121.261 144.033 121.322L144.098 121.365L144.3 121.496C144.23 121.453 144.16 121.412 144.09 121.37C144.069 121.357 144.047 121.345 144.026 121.332C141.608 119.881 139.157 118.346 137.486 116.081C135.753 113.729 135.057 110.36 136.59 107.874Z" fill="#F1F1F1"/>
<path d="M152.724 102.412C153.26 103.63 153.615 104.919 153.778 106.24C153.906 107.417 153.858 108.608 153.634 109.771C153.154 112.161 152.107 114.401 150.581 116.303C149.429 117.746 148.1 119.039 146.625 120.149C145.937 120.471 145.251 120.784 144.566 121.087C144.562 121.088 144.557 121.091 144.552 121.092C144.519 121.107 144.486 121.121 144.456 121.136C144.314 121.198 144.173 121.261 144.033 121.322L144.098 121.365L144.3 121.496C144.23 121.453 144.16 121.412 144.09 121.37C144.069 121.357 144.047 121.345 144.027 121.332C144.559 119.47 144.637 117.508 144.255 115.61C143.872 113.713 143.041 111.934 141.83 110.424C140.612 108.932 139.059 107.75 137.297 106.973C137.408 106.858 137.525 106.75 137.645 106.645C138.324 106.956 138.973 107.327 139.586 107.753C141.779 109.269 143.426 111.45 144.283 113.975C145.048 116.265 145.143 118.726 144.558 121.069C144.68 120.99 144.802 120.908 144.92 120.827C147.173 119.308 149.249 117.483 150.813 115.246C152.162 113.355 153.025 111.162 153.326 108.859C153.626 106.343 152.996 103.869 151.873 101.624C150.633 99.2226 149.07 97.002 147.228 95.0239C145.378 92.9912 143.286 91.1926 140.999 89.6681C140.948 89.6333 140.911 89.5801 140.898 89.5194C140.885 89.4587 140.895 89.3951 140.927 89.342C140.952 89.2935 140.995 89.2567 141.046 89.2396C141.072 89.2329 141.1 89.2322 141.126 89.2376C141.152 89.2429 141.177 89.2542 141.199 89.2705C141.481 89.4589 141.761 89.6489 142.038 89.8447C144.341 91.4755 146.432 93.3861 148.264 95.5326C150.035 97.6016 151.646 99.9004 152.724 102.412Z" fill="white"/>
<path d="M103.422 7.68626C105.364 7.68626 106.938 6.11229 106.938 4.17071C106.938 2.22912 105.364 0.655151 103.422 0.655151C101.481 0.655151 99.9066 2.22912 99.9066 4.17071C99.9066 6.11229 101.481 7.68626 103.422 7.68626Z" fill="#F1F1F1"/>
<path d="M147.136 54.7328C148.32 54.7328 149.28 53.7732 149.28 52.5894C149.28 51.4057 148.32 50.446 147.136 50.446C145.952 50.446 144.993 51.4057 144.993 52.5894C144.993 53.7732 145.952 54.7328 147.136 54.7328Z" fill="#F1F1F1"/>
<path d="M84.4076 60.6135C85.5914 60.6135 86.551 59.6539 86.551 58.4701C86.551 57.2864 85.5914 56.3268 84.4076 56.3268C83.2239 56.3268 82.2643 57.2864 82.2643 58.4701C82.2643 59.6539 83.2239 60.6135 84.4076 60.6135Z" fill="#F1F1F1"/>
<path d="M85.6178 121.733H160.304C160.356 121.733 160.406 121.712 160.443 121.675C160.479 121.638 160.5 121.589 160.5 121.537C160.5 121.485 160.479 121.435 160.443 121.398C160.406 121.361 160.356 121.341 160.304 121.341H85.6178C85.5658 121.341 85.5159 121.361 85.4792 121.398C85.4424 121.435 85.4218 121.485 85.4218 121.537C85.4218 121.589 85.4424 121.638 85.4792 121.675C85.5159 121.712 85.5658 121.733 85.6178 121.733Z" fill="#CBCBCB"/>
<path d="M152.062 18.9431C152.16 18.2468 151.999 17.5388 151.61 16.9531C151.221 16.3674 150.631 15.9448 149.951 15.7654C149.271 15.586 148.549 15.6621 147.921 15.9795C147.294 16.2969 146.805 16.8334 146.546 17.4873L140.486 24.4354L142.264 29.4021L148.359 21.2836C148.757 21.411 149.178 21.4496 149.592 21.3968C150.006 21.344 150.404 21.2009 150.757 20.9778C151.11 20.7546 151.41 20.4568 151.635 20.1053C151.861 19.7537 152.006 19.357 152.062 18.9431Z" fill="#FFB7B7"/>
<path d="M126.94 45.9779L147.058 24.5073L144.344 20.1931L119.111 41.5334L126.94 45.9779Z" fill="#3F3D56"/>
<path d="M122.45 32.9325C126.347 32.9325 129.507 29.773 129.507 25.8756C129.507 21.9781 126.347 18.8186 122.45 18.8186C118.552 18.8186 115.393 21.9781 115.393 25.8756C115.393 29.773 118.552 32.9325 122.45 32.9325Z" fill="#2F2E41"/>
<path d="M123.017 21.889C124.536 20.3491 126.373 19.1608 128.4 18.4078C129.702 17.9256 131.118 17.6278 132.479 17.9016C133.839 18.1754 135.126 19.1166 135.506 20.4514C135.816 21.543 135.495 22.7182 135.014 23.7458C134.532 24.7733 133.889 25.7261 133.5 26.792C133.102 27.8796 132.983 29.0492 133.152 30.1946C133.321 31.3401 133.774 32.4252 134.469 33.3513C135.164 34.2775 136.079 35.0154 137.131 35.4981C138.184 35.9808 139.34 36.193 140.496 36.1155C139.159 36.2947 137.927 36.9229 136.62 37.2573C135.313 37.5917 133.771 37.569 132.8 36.6329C131.773 35.6425 131.752 34.0322 131.802 32.606C131.876 30.486 131.95 28.366 132.023 26.246C132.061 25.1648 132.093 24.049 131.703 23.0398C131.313 22.0307 130.387 21.1471 129.305 21.1563C128.485 21.1632 127.759 21.6599 127.102 22.1497C126.444 22.6395 125.748 23.1621 124.932 23.235C124.115 23.3079 123.183 22.7035 123.244 21.8858L123.017 21.889Z" fill="#2F2E41"/>
<path d="M95.6468 73.2597C94.9694 73.4479 94.2464 73.3811 93.6149 73.0718C92.9834 72.7626 92.4873 72.2325 92.2205 71.5819C91.9538 70.9313 91.935 70.2055 92.1677 69.5419C92.4003 68.8784 92.8683 68.3233 93.4829 67.9817L99.5794 61.0652L104.736 62.1792L97.4834 69.2828C97.6617 69.6605 97.755 70.0727 97.7568 70.4903C97.7585 70.908 97.6687 71.3209 97.4936 71.7C97.3185 72.0792 97.0624 72.4154 96.7433 72.6848C96.4243 72.9543 96.05 73.1505 95.6468 73.2597Z" fill="#FFB7B7"/>
<path d="M115.705 48.498L100.51 67.5714L95.8778 65.4449L113.738 37.6395L115.705 48.498Z" fill="#3F3D56"/>
<path d="M103.58 106.092L99.9589 106.035L100.394 118.378H103.58L103.58 106.092Z" fill="#FFB7B7"/>
<path d="M104.392 117.338L98.1192 117.338H98.1189C97.0587 117.338 96.0419 117.759 95.2922 118.509C94.5425 119.258 94.1213 120.275 94.1212 121.335V121.465L104.392 121.466L104.392 117.338Z" fill="#2F2E41"/>
<path d="M127.558 102.818L123.602 105.358L131.515 114.878L134.195 113.157L127.558 102.818Z" fill="#FFB7B7"/>
<path d="M134.317 111.843L129.038 115.232L129.038 115.232C128.146 115.805 127.518 116.709 127.292 117.745C127.066 118.781 127.261 119.864 127.834 120.756L127.904 120.865L136.547 115.316L134.317 111.843Z" fill="#2F2E41"/>
<path d="M128.967 65.128C128.967 65.128 120.177 35.9342 117.352 35.5397C114.528 35.1452 109.976 43.0305 109.976 43.0305C104.075 50.5595 97.9905 74.9477 97.9905 74.9477C97.9905 74.9477 108.134 75.5825 115.549 79.5276C122.964 83.4727 131.715 79.3279 131.715 79.3279L128.967 65.128Z" fill="#3F3D56"/>
<path opacity="0.1" d="M128.967 65.1279C128.967 65.1279 120.177 35.9342 117.352 35.5397C114.528 35.1452 111.132 43.1105 111.132 43.1105C108.192 55.2641 97.9905 74.9477 97.9905 74.9477C97.9905 74.9477 108.134 75.5825 115.549 79.5276C122.964 83.4727 131.715 79.3279 131.715 79.3279L128.967 65.1279Z" fill="black"/>
<path d="M121.756 56.3933V71.063L123.482 92.313L132.107 108.387L127.991 111.328L116.229 96.0376L111.577 80.8555L104.271 114.464L98.7827 114.072L102.595 67.4743L109.828 54.3582L121.756 56.3933Z" fill="#2F2E41"/>
<path d="M112.893 42.2045C110.149 44.9488 112.697 47.8892 112.697 47.8892L109.561 54.9462L121.911 58.2786L126.226 38.9939L123.286 35.8575C117.405 35.6614 117.402 35.5396 117.402 35.5396C116.372 36.5479 112.893 42.2045 112.893 42.2045Z" fill="#34B826"/>
<path d="M126.724 36.9961C126.163 36.582 125.525 36.2834 124.848 36.1175C124.171 35.9516 123.468 35.9216 122.779 36.0295C122.09 36.1373 121.43 36.3807 120.836 36.7456C120.242 37.1104 119.726 37.5896 119.318 38.1552C116.214 42.478 113.343 49.4583 117.298 58.164C123.649 72.1426 129.176 79.2985 131.423 79.2977C131.521 79.2986 131.619 79.2832 131.712 79.2524C133.095 78.7832 135.094 76.4429 135.456 74.3806C135.586 73.6424 135.555 72.6143 134.672 71.9083C132.137 69.8801 127.585 63.5651 126.165 55.2531C125.38 50.6602 126.902 46.4766 128.316 43.7757C128.914 42.6582 129.089 41.3627 128.809 40.1268C128.529 38.8908 127.813 37.7972 126.792 37.0463L126.724 36.9961Z" fill="#3F3D56"/>
<path d="M122.813 32.2392C125.33 30.8631 126.255 27.7067 124.879 25.1894C123.503 22.672 120.347 21.7468 117.829 23.1229C115.312 24.499 114.387 27.6554 115.763 30.1728C117.139 32.6902 120.295 33.6153 122.813 32.2392Z" fill="#FFB7B7"/>
<path d="M113.015 27.2883H120.516L120.593 26.2114L120.978 27.2883H122.133L122.285 25.1539L123.048 27.2883H125.283V27.1826C125.281 25.6966 124.69 24.272 123.639 23.2212C122.588 22.1705 121.164 21.5794 119.678 21.5778H118.62C117.134 21.5794 115.71 22.1705 114.659 23.2212C113.608 24.272 113.017 25.6966 113.015 27.1826V27.2883Z" fill="#2F2E41"/>
<path d="M124.149 31.1593L127.35 30.1206V22.347H121.304L121.454 22.4965C123.536 24.5765 125.853 31.9562 124.149 31.1593Z" fill="#2F2E41"/>
</g>
<defs>
<clipPath id="clip0_28_3693">
<rect width="160" height="121.733" fill="white" transform="translate(0.5)"/>
</clipPath>
</defs>
</svg>
