<svg width="20" height="20" viewBox="0 0 20 20" fill="none" xmlns="http://www.w3.org/2000/svg">
<path d="M19.6783 10.7281C19.7092 11.4665 19.446 12.187 18.9463 12.7316C18.4467 13.2761 17.7514 13.6002 17.0131 13.6328C16.9699 13.6348 16.9268 13.6358 16.8838 13.6358C16.6876 13.6357 16.492 13.6144 16.3004 13.5725C15.7318 14.4504 14.9862 15.2 14.1113 15.7733C13.2365 16.3465 12.2516 16.7309 11.2196 16.9018C11.0976 17.2603 10.8541 17.565 10.5312 17.7631C10.2084 17.9612 9.82648 18.0402 9.45152 17.9866C9.07657 17.933 8.73213 17.75 8.47776 17.4693C8.22339 17.1887 8.07506 16.828 8.05843 16.4496C8.04179 16.0712 8.15789 15.6988 8.38666 15.397C8.61542 15.0951 8.94247 14.8826 9.31128 14.7963C9.68008 14.7099 10.0675 14.7552 10.4064 14.9242C10.7454 15.0931 11.0147 15.3753 11.1678 15.7217C12.6206 15.453 13.933 14.6831 14.8764 13.546C15.8197 12.409 16.3342 10.9769 16.3301 9.49951C16.3301 6.00908 13.4904 3.16943 10 3.16943C6.50957 3.16943 3.66992 6.00908 3.66992 9.49951C3.66973 10.5788 3.94557 11.6402 4.47121 12.5829C4.48903 12.614 4.5024 12.6474 4.51094 12.6822C4.56171 12.8234 4.55628 12.9786 4.49578 13.1158C4.43528 13.2531 4.32433 13.3618 4.1859 13.4195C3.84694 13.5621 3.48288 13.6356 3.11512 13.6355C3.07184 13.6355 3.02846 13.6345 2.985 13.6325C2.24699 13.5995 1.55217 13.2752 1.05291 12.7307C0.553646 12.1862 0.290683 11.4659 0.32168 10.7278C0.334141 10.4335 0.327188 10.1709 0.320391 9.91693C0.314063 9.67783 0.307461 9.43057 0.318321 9.17256C0.35073 8.45188 0.66074 7.77169 1.18342 7.27446C1.7061 6.77723 2.4009 6.50152 3.12231 6.5051C4.28074 3.85463 6.92734 1.99756 10 1.99756C13.0727 1.99756 15.7193 3.85463 16.8777 6.50514C17.5992 6.50102 18.2942 6.77649 18.817 7.27373C19.3398 7.77097 19.6497 8.45135 19.6816 9.17213C19.6925 9.43053 19.686 9.67775 19.6796 9.91686C19.6729 10.1708 19.6659 10.4336 19.6783 10.7281ZM14.9143 9.49951C14.914 10.2524 14.7408 10.9951 14.408 11.6705C14.0753 12.3458 13.5919 12.9357 12.9951 13.3947C12.3983 13.8536 11.704 14.1694 10.9659 14.3176C10.2278 14.4658 9.46544 14.4425 8.73774 14.2495L6.74863 15.3982C6.64827 15.4562 6.53297 15.4831 6.41732 15.4755C6.30167 15.4679 6.19087 15.4262 6.09892 15.3557C6.00697 15.2851 5.93801 15.1889 5.90076 15.0791C5.86351 14.9694 5.85964 14.8511 5.88965 14.7391L6.39801 12.8427C5.55614 11.9327 5.08771 10.7392 5.08594 9.49951C5.08594 6.78904 7.29027 4.58412 10 4.58412C12.7097 4.58412 14.9143 6.78904 14.9143 9.49951ZM8.63379 9.49951C8.63379 9.34411 8.57206 9.19508 8.46217 9.08519C8.35229 8.97531 8.20325 8.91357 8.04785 8.91357H8.04688C7.93104 8.91379 7.81786 8.94834 7.72164 9.01285C7.62543 9.07737 7.5505 9.16895 7.50632 9.27604C7.46214 9.38312 7.45069 9.5009 7.47342 9.61449C7.49616 9.72808 7.55205 9.83238 7.63404 9.91422C7.71602 9.99605 7.82043 10.0517 7.93406 10.0743C8.04769 10.0968 8.16545 10.0851 8.27245 10.0407C8.37945 9.99636 8.4709 9.92126 8.53523 9.82493C8.59957 9.72859 8.63391 9.61535 8.63391 9.49951H8.63379ZM10.5861 9.49951C10.586 9.48033 10.585 9.46116 10.5829 9.44209C10.5811 9.42294 10.5782 9.4039 10.5744 9.38506C10.5709 9.36628 10.5662 9.34776 10.5603 9.32959C10.5548 9.31123 10.5482 9.29326 10.5412 9.27529C10.5341 9.25732 10.5255 9.24053 10.5166 9.22373C10.5076 9.20684 10.4979 9.19041 10.4873 9.17451C10.4766 9.15845 10.4651 9.14293 10.4529 9.12803C10.4408 9.1131 10.4279 9.09888 10.4142 9.08545C10.4009 9.07178 10.3865 9.05889 10.3716 9.04639C10.3568 9.03467 10.3411 9.02295 10.3251 9.0124C10.3092 9.00181 10.2928 8.99203 10.2759 8.98311C10.2591 8.97412 10.2416 8.96592 10.2239 8.9585C10.2064 8.95113 10.1884 8.94474 10.1701 8.93936C10.1335 8.92762 10.0958 8.92002 10.0576 8.9167C10.0002 8.91117 9.94231 8.91394 9.8857 8.9249C9.86686 8.92875 9.84823 8.93357 9.82988 8.93936C9.81157 8.94473 9.79358 8.95112 9.77598 8.9585C9.7584 8.96592 9.74082 8.97412 9.72402 8.98311C9.70723 8.99209 9.69082 9.00186 9.67477 9.0124C9.6427 9.03368 9.61287 9.05816 9.58574 9.08545C9.57203 9.09889 9.55911 9.1131 9.54703 9.12803C9.53494 9.14294 9.52361 9.15845 9.51309 9.17451C9.50235 9.1904 9.49244 9.20682 9.4834 9.22373C9.47439 9.24047 9.46629 9.25768 9.45914 9.27529C9.45173 9.29305 9.44521 9.31117 9.43961 9.32959C9.43418 9.34756 9.42949 9.36631 9.42559 9.38506C9.42173 9.40391 9.41885 9.42294 9.41695 9.44209C9.41504 9.46123 9.41422 9.48037 9.41422 9.49951C9.41422 9.51865 9.41504 9.53818 9.41695 9.55732C9.41888 9.57634 9.42176 9.59524 9.42559 9.61396C9.42949 9.63271 9.43418 9.65146 9.43961 9.66982C9.44521 9.68811 9.45173 9.7061 9.45914 9.72373C9.46629 9.74147 9.47438 9.75881 9.4834 9.77568C9.49234 9.79248 9.50254 9.80889 9.51309 9.8249C9.52361 9.84084 9.53494 9.85622 9.54703 9.871C9.55921 9.88596 9.57213 9.9003 9.58574 9.91397C9.59941 9.92725 9.61348 9.94053 9.62871 9.95264C9.6434 9.96483 9.65878 9.97618 9.67477 9.98662C9.69082 9.99717 9.70719 10.0073 9.72402 10.0163C9.75795 10.034 9.79337 10.0486 9.82988 10.0601C9.8482 10.0655 9.86695 10.0702 9.8857 10.0741C9.92336 10.0818 9.96172 10.0856 10.0002 10.0854C10.1554 10.085 10.3042 10.0234 10.4142 9.91397C10.4412 9.88656 10.4657 9.85675 10.4873 9.8249C10.4978 9.80889 10.5076 9.79248 10.5166 9.77568C10.5255 9.75889 10.5338 9.74131 10.5412 9.72373C10.5486 9.70615 10.5548 9.68779 10.5603 9.66982C10.5661 9.65151 10.5708 9.63286 10.5744 9.61396C10.5782 9.59524 10.5811 9.57634 10.5829 9.55732C10.5849 9.53809 10.5859 9.51877 10.5859 9.49943L10.5861 9.49951ZM12.5392 9.49951C12.5392 9.34411 12.4774 9.19508 12.3676 9.08519C12.2577 8.97531 12.1086 8.91357 11.9532 8.91357H11.9521C11.8363 8.9138 11.7231 8.94835 11.6269 9.01287C11.5307 9.07739 11.4558 9.16898 11.4116 9.27607C11.3674 9.38315 11.356 9.50093 11.3787 9.61452C11.4014 9.7281 11.4573 9.8324 11.5393 9.91423C11.6213 9.99606 11.7257 10.0518 11.8393 10.0743C11.953 10.0968 12.0707 10.0851 12.1777 10.0407C12.2847 9.99636 12.3762 9.92126 12.4405 9.82492C12.5048 9.72859 12.5392 9.61535 12.5392 9.49951Z" fill="#2E3A44"/>
</svg>
