<svg width="25" height="25" viewBox="0 0 25 25" fill="none" xmlns="http://www.w3.org/2000/svg">
<path fill-rule="evenodd" clip-rule="evenodd" d="M16.6583 8.73285C16.6583 11.0825 14.7851 12.9666 12.449 12.9666C10.1129 12.9666 8.23974 11.0825 8.23974 8.73285C8.23974 6.38227 10.1129 4.5 12.449 4.5C14.7851 4.5 16.6583 6.38227 16.6583 8.73285ZM12.449 20.5C9.01785 20.5 6.08809 19.956 6.08809 17.7802C6.08809 15.6034 8.99904 15.0396 12.449 15.0396C15.8802 15.0396 18.81 15.5836 18.81 17.7604C18.81 19.9362 15.899 20.5 12.449 20.5ZM18.4571 8.80922C18.4571 10.007 18.0998 11.1229 17.473 12.0505C17.4086 12.146 17.4659 12.2748 17.5796 12.2946C17.7363 12.3216 17.8984 12.3369 18.0631 12.3414C19.7062 12.3846 21.1809 11.321 21.5883 9.71974C22.1918 7.34123 20.4198 5.2059 18.1634 5.2059C17.9181 5.2059 17.6835 5.23201 17.4551 5.27884C17.4238 5.28605 17.3907 5.30046 17.3728 5.32838C17.3513 5.3626 17.3674 5.40853 17.3889 5.43825C18.0667 6.3938 18.4571 7.55918 18.4571 8.80922ZM21.1782 14.0126C22.2823 14.2296 23.0084 14.6727 23.3093 15.3166C23.5636 15.8453 23.5636 16.4586 23.3093 16.9864C22.849 17.9851 21.3654 18.3058 20.7887 18.3886C20.6696 18.4066 20.5738 18.3031 20.5864 18.1833C20.8809 15.4157 18.5377 14.1035 17.9315 13.8018C17.9055 13.7883 17.9002 13.7676 17.9028 13.755C17.9046 13.746 17.9154 13.7316 17.9351 13.7289C19.2468 13.7046 20.6571 13.8847 21.1782 14.0126ZM6.93711 12.3413C7.10186 12.3368 7.26304 12.3224 7.42063 12.2945C7.53434 12.2747 7.59165 12.1459 7.52718 12.0504C6.9004 11.1228 6.54313 10.0069 6.54313 8.80913C6.54313 7.55909 6.93353 6.39371 7.61135 5.43816C7.63284 5.40844 7.64806 5.36251 7.62746 5.32829C7.60956 5.30127 7.57553 5.28596 7.54509 5.27875C7.31586 5.23192 7.08127 5.20581 6.83593 5.20581C4.57951 5.20581 2.80751 7.34114 3.41191 9.71965C3.81932 11.3209 5.29405 12.3845 6.93711 12.3413ZM7.09694 13.7545C7.09962 13.768 7.09425 13.7878 7.06918 13.8022C6.4621 14.1039 4.11883 15.4161 4.41342 18.1827C4.42595 18.3034 4.33104 18.4061 4.21195 18.389C3.63531 18.3061 2.15163 17.9855 1.69139 16.9867C1.4362 16.4581 1.4362 15.8457 1.69139 15.317C1.99225 14.6731 2.71752 14.23 3.82156 14.012C4.34358 13.885 5.75294 13.7049 7.0656 13.7292C7.0853 13.7319 7.09515 13.7464 7.09694 13.7545Z" fill="#A0AABF"/>
</svg>
