<svg width="32" height="32" viewBox="0 0 32 32" fill="none" xmlns="http://www.w3.org/2000/svg">
<mask id="path-1-outside-1_26_3518" maskUnits="userSpaceOnUse" x="3" y="3.00537" width="24" height="24" fill="black">
<rect fill="white" x="3" y="3.00537" width="24" height="24"/>
<path fill-rule="evenodd" clip-rule="evenodd" d="M4.66667 12.0054C4.48986 12.0054 4.32029 11.9351 4.19526 11.8101C4.07024 11.6851 4 11.5155 4 11.3387V8.67204C4 6.0987 6.09333 4.00537 8.66667 4.00537H11.3333C11.5101 4.00537 11.6797 4.07561 11.8047 4.20063C11.9298 4.32566 12 4.49523 12 4.67204C12 4.84885 11.9298 5.01842 11.8047 5.14344C11.6797 5.26847 11.5101 5.3387 11.3333 5.3387H8.66667C7.78294 5.33976 6.9357 5.69129 6.31081 6.31618C5.68592 6.94108 5.33439 7.78831 5.33333 8.67204V11.3387C5.33333 11.5155 5.2631 11.6851 5.13807 11.8101C5.01305 11.9351 4.84348 12.0054 4.66667 12.0054ZM26 12.0054C25.8232 12.0054 25.6536 11.9351 25.5286 11.8101C25.4036 11.6851 25.3333 11.5155 25.3333 11.3387V8.67204C25.3333 6.83204 23.8373 5.3387 22 5.3387H19.3333C19.1565 5.3387 18.987 5.26847 18.8619 5.14344C18.7369 5.01842 18.6667 4.84885 18.6667 4.67204C18.6667 4.49523 18.7369 4.32566 18.8619 4.20063C18.987 4.07561 19.1565 4.00537 19.3333 4.00537H22C24.5733 4.00537 26.6667 6.0987 26.6667 8.67204V11.3387C26.6667 11.5155 26.5964 11.6851 26.4714 11.8101C26.3464 11.9351 26.1768 12.0054 26 12.0054ZM11.3333 14.672C11.1565 14.672 10.987 14.6018 10.8619 14.4768C10.7369 14.3518 10.6667 14.1822 10.6667 14.0054V11.3387C10.6667 11.1619 10.7369 10.9923 10.8619 10.8673C10.987 10.7423 11.1565 10.672 11.3333 10.672C11.5101 10.672 11.6797 10.7423 11.8047 10.8673C11.9298 10.9923 12 11.1619 12 11.3387V14.0054C12 14.1822 11.9298 14.3518 11.8047 14.4768C11.6797 14.6018 11.5101 14.672 11.3333 14.672ZM19.3333 14.672C19.1565 14.672 18.987 14.6018 18.8619 14.4768C18.7369 14.3518 18.6667 14.1822 18.6667 14.0054V11.3387C18.6667 11.1619 18.7369 10.9923 18.8619 10.8673C18.987 10.7423 19.1565 10.672 19.3333 10.672C19.5101 10.672 19.6797 10.7423 19.8047 10.8673C19.9298 10.9923 20 11.1619 20 11.3387V14.0054C20 14.1822 19.9298 14.3518 19.8047 14.4768C19.6797 14.6018 19.5101 14.672 19.3333 14.672ZM14 17.3387C13.8232 17.3387 13.6536 17.2685 13.5286 17.1434C13.4036 17.0184 13.3333 16.8488 13.3333 16.672C13.3333 16.4952 13.4036 16.3257 13.5286 16.2006C13.6536 16.0756 13.8232 16.0054 14 16.0054C14.1768 16.0054 14.3464 15.9351 14.4714 15.8101C14.5964 15.6851 14.6667 15.5155 14.6667 15.3387V11.3387C14.6667 11.1619 14.7369 10.9923 14.8619 10.8673C14.987 10.7423 15.1565 10.672 15.3333 10.672C15.5101 10.672 15.6797 10.7423 15.8047 10.8673C15.9298 10.9923 16 11.1619 16 11.3387V15.3387C16 16.4414 15.1027 17.3387 14 17.3387ZM15.3333 21.3387C13.824 21.3387 12.544 20.824 11.528 19.8107C11.4177 19.6827 11.3598 19.5178 11.366 19.3489C11.3723 19.1801 11.4422 19.0198 11.5616 18.9003C11.6811 18.7809 11.8414 18.711 12.0102 18.7047C12.1791 18.6985 12.344 18.7564 12.472 18.8667C13.2373 19.6334 14.1733 20.0054 15.3333 20.0054C16.4933 20.0054 17.4293 19.632 18.1947 18.8667C18.3226 18.7564 18.4876 18.6985 18.6565 18.7047C18.8253 18.711 18.9856 18.7809 19.105 18.9003C19.2245 19.0198 19.2944 19.1801 19.3006 19.3489C19.3069 19.5178 19.249 19.6827 19.1387 19.8107C18.1227 20.824 16.8427 21.3387 15.3333 21.3387ZM11.3333 26.672H8.66667C6.09333 26.672 4 24.5787 4 22.0054V19.3387C4 19.1619 4.07024 18.9923 4.19526 18.8673C4.32029 18.7423 4.48986 18.672 4.66667 18.672C4.84348 18.672 5.01305 18.7423 5.13807 18.8673C5.2631 18.9923 5.33333 19.1619 5.33333 19.3387V22.0054C5.33333 23.844 6.82933 25.3387 8.66667 25.3387H11.3333C11.5101 25.3387 11.6797 25.4089 11.8047 25.534C11.9298 25.659 12 25.8286 12 26.0054C12 26.1822 11.9298 26.3518 11.8047 26.4768C11.6797 26.6018 11.5101 26.672 11.3333 26.672ZM22 26.672H19.3333C19.1565 26.672 18.987 26.6018 18.8619 26.4768C18.7369 26.3518 18.6667 26.1822 18.6667 26.0054C18.6667 25.8286 18.7369 25.659 18.8619 25.534C18.987 25.4089 19.1565 25.3387 19.3333 25.3387H22C23.8373 25.3387 25.3333 23.844 25.3333 22.0054V19.3387C25.3333 19.1619 25.4036 18.9923 25.5286 18.8673C25.6536 18.7423 25.8232 18.672 26 18.672C26.1768 18.672 26.3464 18.7423 26.4714 18.8673C26.5964 18.9923 26.6667 19.1619 26.6667 19.3387V22.0054C26.6667 24.5787 24.5733 26.672 22 26.672Z"/>
</mask>
<path fill-rule="evenodd" clip-rule="evenodd" d="M4.66667 12.0054C4.48986 12.0054 4.32029 11.9351 4.19526 11.8101C4.07024 11.6851 4 11.5155 4 11.3387V8.67204C4 6.0987 6.09333 4.00537 8.66667 4.00537H11.3333C11.5101 4.00537 11.6797 4.07561 11.8047 4.20063C11.9298 4.32566 12 4.49523 12 4.67204C12 4.84885 11.9298 5.01842 11.8047 5.14344C11.6797 5.26847 11.5101 5.3387 11.3333 5.3387H8.66667C7.78294 5.33976 6.9357 5.69129 6.31081 6.31618C5.68592 6.94108 5.33439 7.78831 5.33333 8.67204V11.3387C5.33333 11.5155 5.2631 11.6851 5.13807 11.8101C5.01305 11.9351 4.84348 12.0054 4.66667 12.0054ZM26 12.0054C25.8232 12.0054 25.6536 11.9351 25.5286 11.8101C25.4036 11.6851 25.3333 11.5155 25.3333 11.3387V8.67204C25.3333 6.83204 23.8373 5.3387 22 5.3387H19.3333C19.1565 5.3387 18.987 5.26847 18.8619 5.14344C18.7369 5.01842 18.6667 4.84885 18.6667 4.67204C18.6667 4.49523 18.7369 4.32566 18.8619 4.20063C18.987 4.07561 19.1565 4.00537 19.3333 4.00537H22C24.5733 4.00537 26.6667 6.0987 26.6667 8.67204V11.3387C26.6667 11.5155 26.5964 11.6851 26.4714 11.8101C26.3464 11.9351 26.1768 12.0054 26 12.0054ZM11.3333 14.672C11.1565 14.672 10.987 14.6018 10.8619 14.4768C10.7369 14.3518 10.6667 14.1822 10.6667 14.0054V11.3387C10.6667 11.1619 10.7369 10.9923 10.8619 10.8673C10.987 10.7423 11.1565 10.672 11.3333 10.672C11.5101 10.672 11.6797 10.7423 11.8047 10.8673C11.9298 10.9923 12 11.1619 12 11.3387V14.0054C12 14.1822 11.9298 14.3518 11.8047 14.4768C11.6797 14.6018 11.5101 14.672 11.3333 14.672ZM19.3333 14.672C19.1565 14.672 18.987 14.6018 18.8619 14.4768C18.7369 14.3518 18.6667 14.1822 18.6667 14.0054V11.3387C18.6667 11.1619 18.7369 10.9923 18.8619 10.8673C18.987 10.7423 19.1565 10.672 19.3333 10.672C19.5101 10.672 19.6797 10.7423 19.8047 10.8673C19.9298 10.9923 20 11.1619 20 11.3387V14.0054C20 14.1822 19.9298 14.3518 19.8047 14.4768C19.6797 14.6018 19.5101 14.672 19.3333 14.672ZM14 17.3387C13.8232 17.3387 13.6536 17.2685 13.5286 17.1434C13.4036 17.0184 13.3333 16.8488 13.3333 16.672C13.3333 16.4952 13.4036 16.3257 13.5286 16.2006C13.6536 16.0756 13.8232 16.0054 14 16.0054C14.1768 16.0054 14.3464 15.9351 14.4714 15.8101C14.5964 15.6851 14.6667 15.5155 14.6667 15.3387V11.3387C14.6667 11.1619 14.7369 10.9923 14.8619 10.8673C14.987 10.7423 15.1565 10.672 15.3333 10.672C15.5101 10.672 15.6797 10.7423 15.8047 10.8673C15.9298 10.9923 16 11.1619 16 11.3387V15.3387C16 16.4414 15.1027 17.3387 14 17.3387ZM15.3333 21.3387C13.824 21.3387 12.544 20.824 11.528 19.8107C11.4177 19.6827 11.3598 19.5178 11.366 19.3489C11.3723 19.1801 11.4422 19.0198 11.5616 18.9003C11.6811 18.7809 11.8414 18.711 12.0102 18.7047C12.1791 18.6985 12.344 18.7564 12.472 18.8667C13.2373 19.6334 14.1733 20.0054 15.3333 20.0054C16.4933 20.0054 17.4293 19.632 18.1947 18.8667C18.3226 18.7564 18.4876 18.6985 18.6565 18.7047C18.8253 18.711 18.9856 18.7809 19.105 18.9003C19.2245 19.0198 19.2944 19.1801 19.3006 19.3489C19.3069 19.5178 19.249 19.6827 19.1387 19.8107C18.1227 20.824 16.8427 21.3387 15.3333 21.3387ZM11.3333 26.672H8.66667C6.09333 26.672 4 24.5787 4 22.0054V19.3387C4 19.1619 4.07024 18.9923 4.19526 18.8673C4.32029 18.7423 4.48986 18.672 4.66667 18.672C4.84348 18.672 5.01305 18.7423 5.13807 18.8673C5.2631 18.9923 5.33333 19.1619 5.33333 19.3387V22.0054C5.33333 23.844 6.82933 25.3387 8.66667 25.3387H11.3333C11.5101 25.3387 11.6797 25.4089 11.8047 25.534C11.9298 25.659 12 25.8286 12 26.0054C12 26.1822 11.9298 26.3518 11.8047 26.4768C11.6797 26.6018 11.5101 26.672 11.3333 26.672ZM22 26.672H19.3333C19.1565 26.672 18.987 26.6018 18.8619 26.4768C18.7369 26.3518 18.6667 26.1822 18.6667 26.0054C18.6667 25.8286 18.7369 25.659 18.8619 25.534C18.987 25.4089 19.1565 25.3387 19.3333 25.3387H22C23.8373 25.3387 25.3333 23.844 25.3333 22.0054V19.3387C25.3333 19.1619 25.4036 18.9923 25.5286 18.8673C25.6536 18.7423 25.8232 18.672 26 18.672C26.1768 18.672 26.3464 18.7423 26.4714 18.8673C26.5964 18.9923 26.6667 19.1619 26.6667 19.3387V22.0054C26.6667 24.5787 24.5733 26.672 22 26.672Z" fill="white"/>
<path fill-rule="evenodd" clip-rule="evenodd" d="M4.66667 12.0054C4.48986 12.0054 4.32029 11.9351 4.19526 11.8101C4.07024 11.6851 4 11.5155 4 11.3387V8.67204C4 6.0987 6.09333 4.00537 8.66667 4.00537H11.3333C11.5101 4.00537 11.6797 4.07561 11.8047 4.20063C11.9298 4.32566 12 4.49523 12 4.67204C12 4.84885 11.9298 5.01842 11.8047 5.14344C11.6797 5.26847 11.5101 5.3387 11.3333 5.3387H8.66667C7.78294 5.33976 6.9357 5.69129 6.31081 6.31618C5.68592 6.94108 5.33439 7.78831 5.33333 8.67204V11.3387C5.33333 11.5155 5.2631 11.6851 5.13807 11.8101C5.01305 11.9351 4.84348 12.0054 4.66667 12.0054ZM26 12.0054C25.8232 12.0054 25.6536 11.9351 25.5286 11.8101C25.4036 11.6851 25.3333 11.5155 25.3333 11.3387V8.67204C25.3333 6.83204 23.8373 5.3387 22 5.3387H19.3333C19.1565 5.3387 18.987 5.26847 18.8619 5.14344C18.7369 5.01842 18.6667 4.84885 18.6667 4.67204C18.6667 4.49523 18.7369 4.32566 18.8619 4.20063C18.987 4.07561 19.1565 4.00537 19.3333 4.00537H22C24.5733 4.00537 26.6667 6.0987 26.6667 8.67204V11.3387C26.6667 11.5155 26.5964 11.6851 26.4714 11.8101C26.3464 11.9351 26.1768 12.0054 26 12.0054ZM11.3333 14.672C11.1565 14.672 10.987 14.6018 10.8619 14.4768C10.7369 14.3518 10.6667 14.1822 10.6667 14.0054V11.3387C10.6667 11.1619 10.7369 10.9923 10.8619 10.8673C10.987 10.7423 11.1565 10.672 11.3333 10.672C11.5101 10.672 11.6797 10.7423 11.8047 10.8673C11.9298 10.9923 12 11.1619 12 11.3387V14.0054C12 14.1822 11.9298 14.3518 11.8047 14.4768C11.6797 14.6018 11.5101 14.672 11.3333 14.672ZM19.3333 14.672C19.1565 14.672 18.987 14.6018 18.8619 14.4768C18.7369 14.3518 18.6667 14.1822 18.6667 14.0054V11.3387C18.6667 11.1619 18.7369 10.9923 18.8619 10.8673C18.987 10.7423 19.1565 10.672 19.3333 10.672C19.5101 10.672 19.6797 10.7423 19.8047 10.8673C19.9298 10.9923 20 11.1619 20 11.3387V14.0054C20 14.1822 19.9298 14.3518 19.8047 14.4768C19.6797 14.6018 19.5101 14.672 19.3333 14.672ZM14 17.3387C13.8232 17.3387 13.6536 17.2685 13.5286 17.1434C13.4036 17.0184 13.3333 16.8488 13.3333 16.672C13.3333 16.4952 13.4036 16.3257 13.5286 16.2006C13.6536 16.0756 13.8232 16.0054 14 16.0054C14.1768 16.0054 14.3464 15.9351 14.4714 15.8101C14.5964 15.6851 14.6667 15.5155 14.6667 15.3387V11.3387C14.6667 11.1619 14.7369 10.9923 14.8619 10.8673C14.987 10.7423 15.1565 10.672 15.3333 10.672C15.5101 10.672 15.6797 10.7423 15.8047 10.8673C15.9298 10.9923 16 11.1619 16 11.3387V15.3387C16 16.4414 15.1027 17.3387 14 17.3387ZM15.3333 21.3387C13.824 21.3387 12.544 20.824 11.528 19.8107C11.4177 19.6827 11.3598 19.5178 11.366 19.3489C11.3723 19.1801 11.4422 19.0198 11.5616 18.9003C11.6811 18.7809 11.8414 18.711 12.0102 18.7047C12.1791 18.6985 12.344 18.7564 12.472 18.8667C13.2373 19.6334 14.1733 20.0054 15.3333 20.0054C16.4933 20.0054 17.4293 19.632 18.1947 18.8667C18.3226 18.7564 18.4876 18.6985 18.6565 18.7047C18.8253 18.711 18.9856 18.7809 19.105 18.9003C19.2245 19.0198 19.2944 19.1801 19.3006 19.3489C19.3069 19.5178 19.249 19.6827 19.1387 19.8107C18.1227 20.824 16.8427 21.3387 15.3333 21.3387ZM11.3333 26.672H8.66667C6.09333 26.672 4 24.5787 4 22.0054V19.3387C4 19.1619 4.07024 18.9923 4.19526 18.8673C4.32029 18.7423 4.48986 18.672 4.66667 18.672C4.84348 18.672 5.01305 18.7423 5.13807 18.8673C5.2631 18.9923 5.33333 19.1619 5.33333 19.3387V22.0054C5.33333 23.844 6.82933 25.3387 8.66667 25.3387H11.3333C11.5101 25.3387 11.6797 25.4089 11.8047 25.534C11.9298 25.659 12 25.8286 12 26.0054C12 26.1822 11.9298 26.3518 11.8047 26.4768C11.6797 26.6018 11.5101 26.672 11.3333 26.672ZM22 26.672H19.3333C19.1565 26.672 18.987 26.6018 18.8619 26.4768C18.7369 26.3518 18.6667 26.1822 18.6667 26.0054C18.6667 25.8286 18.7369 25.659 18.8619 25.534C18.987 25.4089 19.1565 25.3387 19.3333 25.3387H22C23.8373 25.3387 25.3333 23.844 25.3333 22.0054V19.3387C25.3333 19.1619 25.4036 18.9923 25.5286 18.8673C25.6536 18.7423 25.8232 18.672 26 18.672C26.1768 18.672 26.3464 18.7423 26.4714 18.8673C26.5964 18.9923 26.6667 19.1619 26.6667 19.3387V22.0054C26.6667 24.5787 24.5733 26.672 22 26.672Z" stroke="white" stroke-width="0.4" mask="url(#path-1-outside-1_26_3518)"/>
</svg>
