<svg width="127" height="122" viewBox="0 0 127 122" fill="none" xmlns="http://www.w3.org/2000/svg">
<g clip-path="url(#clip0_28_3848)">
<path d="M106.824 28.8521H106.158V10.577C106.158 7.77183 105.044 5.08152 103.06 3.09794C101.076 1.11436 98.3861 1.37972e-09 95.5809 1.37972e-09H56.8619C55.4729 -2.24327e-05 54.0975 0.273539 52.8142 0.805064C51.5309 1.33659 50.3649 2.11567 49.3827 3.09782C48.4006 4.07998 47.6214 5.24597 47.0899 6.52922C46.5583 7.81248 46.2847 9.18787 46.2847 10.5769V110.835C46.2847 113.64 47.399 116.331 49.3826 118.314C51.3662 120.298 54.0565 121.412 56.8617 121.412H95.5804C98.3856 121.412 101.076 120.298 103.059 118.314C105.043 116.331 106.157 113.64 106.157 110.835V41.8606H106.824L106.824 28.8521Z" fill="#3F3D56"/>
<path d="M103.988 9.86862V111.543C103.988 113.67 103.143 115.71 101.639 117.214C100.136 118.718 98.0961 119.563 95.9692 119.564H56.4559C54.3282 119.565 52.2875 118.72 50.7826 117.216C49.2778 115.711 48.432 113.671 48.4314 111.543V9.86862C48.432 7.74099 49.2777 5.70074 50.7825 4.19661C52.2873 2.69247 54.3279 1.84763 56.4555 1.8479H61.2487C61.0134 2.42668 60.9238 3.0544 60.9879 3.67591C61.0519 4.29741 61.2677 4.89366 61.6161 5.41226C61.9646 5.93085 62.4351 6.35591 62.9864 6.65006C63.5376 6.94422 64.1526 7.09847 64.7774 7.09927H87.3046C87.9294 7.09847 88.5445 6.94422 89.0957 6.65006C89.6469 6.35591 90.1174 5.93085 90.4659 5.41226C90.8144 4.89366 91.0301 4.29741 91.0942 3.67591C91.1583 3.0544 91.0687 2.42668 90.8333 1.8479H95.9677C98.0945 1.84826 100.134 2.69321 101.638 4.19697C103.142 5.70074 103.988 7.74023 103.988 9.86708V9.86862Z" fill="white"/>
<path d="M76.2024 50.6847C85.3131 50.6847 92.6988 43.2991 92.6988 34.1884C92.6988 25.0777 85.3131 17.692 76.2024 17.692C67.0917 17.692 59.7061 25.0777 59.7061 34.1884C59.7061 43.2991 67.0917 50.6847 76.2024 50.6847Z" fill="#F50057"/>
<path d="M94.1938 68.4345H59.0816C58.9092 68.4343 58.7439 68.3657 58.622 68.2438C58.5001 68.122 58.4316 67.9567 58.4314 67.7843V59.0746C58.4316 58.9023 58.5002 58.737 58.6221 58.6151C58.744 58.4932 58.9092 58.4247 59.0816 58.4244H94.1938C94.3662 58.4247 94.5314 58.4932 94.6533 58.6151C94.7752 58.737 94.8438 58.9023 94.844 59.0746V67.7845C94.8438 67.9568 94.7752 68.1221 94.6533 68.244C94.5314 68.3659 94.3662 68.4344 94.1938 68.4347V68.4345ZM59.0816 58.6844C58.9781 58.6845 58.8789 58.7257 58.8058 58.7988C58.7326 58.872 58.6915 58.9712 58.6914 59.0746V67.7845C58.6915 67.8879 58.7326 67.9871 58.8058 68.0603C58.8789 68.1334 58.9781 68.1746 59.0816 68.1747H94.1938C94.2972 68.1746 94.3964 68.1334 94.4696 68.0603C94.5428 67.9871 94.5839 67.8879 94.584 67.7845V59.0746C94.5839 58.9712 94.5428 58.872 94.4696 58.7988C94.3964 58.7257 94.2972 58.6845 94.1938 58.6844H59.0816Z" fill="#E6E6E6"/>
<path d="M69.9403 61.561C69.8196 61.561 69.7038 61.609 69.6184 61.6944C69.5331 61.7797 69.4851 61.8955 69.4851 62.0162C69.4851 62.1369 69.5331 62.2527 69.6184 62.3381C69.7038 62.4234 69.8196 62.4714 69.9403 62.4714H91.3976C91.5182 62.476 91.6358 62.4325 91.7244 62.3505C91.813 62.2684 91.8653 62.1545 91.87 62.0339C91.8746 61.9132 91.8311 61.7957 91.749 61.7071C91.667 61.6185 91.5531 61.5661 91.4325 61.5615C91.4258 61.5613 91.4191 61.5612 91.4124 61.5612L69.9403 61.561Z" fill="#E6E6E6"/>
<path d="M69.9403 64.2916C69.8196 64.2916 69.7038 64.3396 69.6184 64.4249C69.5331 64.5103 69.4851 64.6261 69.4851 64.7468C69.4851 64.8675 69.5331 64.9833 69.6184 65.0687C69.7038 65.154 69.8196 65.202 69.9403 65.202H91.3976C91.5182 65.2066 91.6358 65.1631 91.7244 65.0811C91.813 64.999 91.8653 64.8851 91.87 64.7645C91.8746 64.6438 91.8311 64.5263 91.749 64.4377C91.667 64.3491 91.5531 64.2967 91.4325 64.2921C91.4258 64.2919 91.4191 64.2918 91.4124 64.2918L69.9403 64.2916Z" fill="#E6E6E6"/>
<path d="M94.1938 82.9517H59.0816C58.9092 82.9515 58.7439 82.883 58.622 82.7611C58.5001 82.6392 58.4316 82.4739 58.4314 82.3015V73.5918C58.4316 73.4195 58.5002 73.2542 58.6221 73.1323C58.744 73.0105 58.9092 72.9419 59.0816 72.9417H94.1938C94.3662 72.9419 94.5314 73.0105 94.6533 73.1323C94.7752 73.2542 94.8438 73.4195 94.844 73.5918V82.3017C94.8437 82.474 94.7751 82.6392 94.6532 82.7611C94.5314 82.8829 94.3661 82.9515 94.1938 82.9517ZM59.0816 73.2017C58.9781 73.2017 58.8789 73.2429 58.8058 73.316C58.7326 73.3892 58.6915 73.4884 58.6914 73.5918V82.3017C58.6915 82.4051 58.7326 82.5043 58.8058 82.5775C58.8789 82.6506 58.9781 82.6918 59.0816 82.6919H94.1938C94.2972 82.6918 94.3964 82.6506 94.4696 82.5775C94.5428 82.5043 94.5839 82.4051 94.584 82.3017V73.5918C94.5839 73.4884 94.5428 73.3892 94.4696 73.316C94.3964 73.2429 94.2972 73.2017 94.1938 73.2017H59.0816Z" fill="#E6E6E6"/>
<path d="M69.9403 76.1255C69.8196 76.1255 69.7038 76.1735 69.6184 76.2588C69.5331 76.3442 69.4851 76.46 69.4851 76.5807C69.4851 76.7014 69.5331 76.8172 69.6184 76.9025C69.7038 76.9879 69.8196 77.0359 69.9403 77.0359H91.3976C91.5166 77.0352 91.6306 76.9879 91.7152 76.9042C91.7998 76.8205 91.8483 76.707 91.8502 76.588C91.8522 76.469 91.8074 76.354 91.7256 76.2676C91.6438 76.1812 91.5314 76.1302 91.4125 76.1257H69.9403V76.1255Z" fill="#E6E6E6"/>
<path d="M69.9403 78.8567C69.8196 78.8567 69.7038 78.9047 69.6184 78.99C69.5331 79.0754 69.4851 79.1911 69.4851 79.3119C69.4851 79.4326 69.5331 79.5484 69.6184 79.6337C69.7038 79.7191 69.8196 79.7671 69.9403 79.7671H91.3976C91.5166 79.7664 91.6306 79.7191 91.7152 79.6354C91.7998 79.5517 91.8483 79.4382 91.8502 79.3192C91.8522 79.2002 91.8074 79.0852 91.7256 78.9988C91.6438 78.9124 91.5314 78.8614 91.4125 78.8569H69.9403V78.8567Z" fill="#E6E6E6"/>
<path d="M94.1938 97.5165H59.0816C58.9092 97.5163 58.7439 97.4478 58.622 97.3259C58.5001 97.204 58.4316 97.0387 58.4314 96.8663V88.1567C58.4316 87.9843 58.5002 87.819 58.6221 87.6972C58.744 87.5753 58.9092 87.5067 59.0816 87.5065H94.1938C94.3662 87.5067 94.5314 87.5753 94.6533 87.6972C94.7752 87.819 94.8438 87.9843 94.844 88.1567V96.8665C94.8438 97.0389 94.7752 97.2041 94.6533 97.326C94.5314 97.4479 94.3662 97.5165 94.1938 97.5167V97.5165ZM59.0816 87.7665C58.9781 87.7666 58.8789 87.8077 58.8058 87.8809C58.7326 87.954 58.6915 88.0532 58.6914 88.1567V96.8665C58.6915 96.97 58.7326 97.0692 58.8058 97.1423C58.8789 97.2155 58.9781 97.2566 59.0816 97.2567H94.1938C94.2972 97.2566 94.3964 97.2155 94.4696 97.1423C94.5428 97.0692 94.5839 96.97 94.584 96.8665V88.1567C94.5839 88.0532 94.5428 87.954 94.4696 87.8809C94.3964 87.8077 94.2972 87.7666 94.1938 87.7665H59.0816Z" fill="#E6E6E6"/>
<path d="M69.9403 90.6908C69.8196 90.6908 69.7038 90.7387 69.6184 90.8241C69.5331 90.9095 69.4851 91.0253 69.4851 91.146C69.4851 91.2667 69.5331 91.3825 69.6184 91.4678C69.7038 91.5532 69.8196 91.6012 69.9403 91.6012H91.3976C91.4573 91.6034 91.5169 91.5939 91.573 91.5732C91.6291 91.5525 91.6805 91.5209 91.7244 91.4802C91.7682 91.4396 91.8037 91.3907 91.8287 91.3364C91.8536 91.2821 91.8677 91.2234 91.87 91.1637C91.8723 91.1039 91.8627 91.0443 91.842 90.9882C91.8212 90.9322 91.7897 90.8807 91.749 90.8369C91.7084 90.793 91.6595 90.7576 91.6052 90.7326C91.5509 90.7076 91.4922 90.6936 91.4325 90.6913C91.4258 90.691 91.4191 90.6909 91.4124 90.691L69.9403 90.6908Z" fill="#E6E6E6"/>
<path d="M69.9403 93.4219C69.8196 93.4219 69.7038 93.4698 69.6184 93.5552C69.5331 93.6406 69.4851 93.7563 69.4851 93.8771C69.4851 93.9978 69.5331 94.1136 69.6184 94.1989C69.7038 94.2843 69.8196 94.3322 69.9403 94.3322H91.3976C91.4573 94.3345 91.5169 94.325 91.573 94.3043C91.6291 94.2835 91.6805 94.252 91.7244 94.2113C91.7682 94.1707 91.8037 94.1218 91.8287 94.0675C91.8536 94.0132 91.8677 93.9545 91.87 93.8947C91.8723 93.835 91.8627 93.7754 91.842 93.7193C91.8212 93.6632 91.7897 93.6118 91.749 93.5679C91.7084 93.5241 91.6595 93.4887 91.6052 93.4637C91.5509 93.4387 91.4922 93.4247 91.4325 93.4224C91.4258 93.4221 91.4191 93.422 91.4124 93.4221H69.9403L69.9403 93.4219Z" fill="#E6E6E6"/>
<path d="M126.583 121.73H0.417007C0.234047 121.73 0.0859375 121.65 0.0859375 121.551C0.0859375 121.453 0.234217 121.373 0.417007 121.373H126.583C126.766 121.373 126.914 121.453 126.914 121.551C126.914 121.65 126.766 121.73 126.583 121.73Z" fill="#E6E6E6"/>
<path d="M121.24 114.766C120.701 114.955 120.122 115.003 119.559 114.904C118.997 114.805 118.469 114.562 118.027 114.2C116.902 113.256 116.549 111.7 116.262 110.259L115.413 105.998L117.191 107.222C118.469 108.102 119.776 109.01 120.661 110.285C121.546 111.56 121.933 113.3 121.222 114.68" fill="#E6E6E6"/>
<path d="M120.965 120.222C121.189 118.592 121.419 116.941 121.262 115.294C121.123 113.83 120.676 112.401 119.768 111.23C119.285 110.609 118.698 110.077 118.033 109.658C117.86 109.548 117.7 109.823 117.873 109.932C119.024 110.66 119.914 111.734 120.415 113C120.968 114.408 121.057 115.942 120.961 117.437C120.904 118.342 120.782 119.24 120.658 120.137C120.649 120.178 120.655 120.221 120.675 120.257C120.696 120.293 120.73 120.32 120.769 120.333C120.81 120.344 120.853 120.338 120.89 120.318C120.927 120.297 120.953 120.262 120.965 120.222H120.965Z" fill="#F2F2F2"/>
<path d="M119.355 117.606C119.124 117.958 118.806 118.244 118.432 118.437C118.058 118.629 117.641 118.723 117.221 118.708C116.141 118.656 115.24 117.903 114.43 117.187L112.032 115.07L113.619 114.994C114.76 114.939 115.931 114.888 117.018 115.24C118.106 115.592 119.108 116.439 119.307 117.564" fill="#E6E6E6"/>
<path d="M121.598 121.159C120.521 119.253 119.271 117.135 117.039 116.458C116.418 116.27 115.767 116.203 115.122 116.26C114.918 116.277 114.969 116.591 115.173 116.574C116.256 116.484 117.336 116.77 118.233 117.383C119.096 117.971 119.767 118.787 120.336 119.653C120.684 120.183 120.996 120.736 121.308 121.288C121.407 121.465 121.699 121.337 121.598 121.159Z" fill="#F2F2F2"/>
<path d="M63.4621 66.1069C64.9704 66.1069 66.193 64.8842 66.193 63.3759C66.193 61.8677 64.9704 60.645 63.4621 60.645C61.9539 60.645 60.7312 61.8677 60.7312 63.3759C60.7312 64.8842 61.9539 66.1069 63.4621 66.1069Z" fill="#F50057"/>
<path d="M62.1548 62.8658C62.1234 62.8658 62.0979 63.0696 62.0979 63.3209C62.0979 63.5722 62.1234 63.7762 62.1548 63.7762H64.8401C64.8715 63.7803 64.8975 63.5799 64.898 63.3286C64.9154 63.1722 64.8963 63.0138 64.842 62.866H62.1548V62.8658Z" fill="#E6E6E6"/>
<path d="M63.4621 80.6777C64.9704 80.6777 66.193 79.455 66.193 77.9467C66.193 76.4385 64.9704 75.2158 63.4621 75.2158C61.9539 75.2158 60.7312 76.4385 60.7312 77.9467C60.7312 79.455 61.9539 80.6777 63.4621 80.6777Z" fill="#F50057"/>
<path d="M62.1548 77.4366C62.1234 77.4366 62.0979 77.6404 62.0979 77.8917C62.0979 78.143 62.1234 78.347 62.1548 78.347H64.8401C64.8715 78.3511 64.8975 78.1507 64.898 77.8994C64.9154 77.743 64.8963 77.5846 64.842 77.4368L62.1548 77.4366Z" fill="#E6E6E6"/>
<path d="M63.4621 95.2423C64.9704 95.2423 66.193 94.0197 66.193 92.5114C66.193 91.0032 64.9704 89.7805 63.4621 89.7805C61.9539 89.7805 60.7312 91.0032 60.7312 92.5114C60.7312 94.0197 61.9539 95.2423 63.4621 95.2423Z" fill="#F50057"/>
<path d="M62.1548 92.0013C62.1234 92.0013 62.0979 92.2051 62.0979 92.4564C62.0979 92.7077 62.1234 92.9117 62.1548 92.9117H64.8401C64.8715 92.9158 64.8975 92.7154 64.898 92.4641C64.9154 92.3077 64.8963 92.1493 64.842 92.0015L62.1548 92.0013Z" fill="#E6E6E6"/>
<path d="M72.639 29.6585L71.6726 30.6249L79.766 38.7182L80.7323 37.7519L72.639 29.6585Z" fill="white"/>
<path d="M80.7325 30.6248L79.7661 29.6584L71.6728 37.7518L72.6391 38.7182L80.7325 30.6248Z" fill="white"/>
<path d="M15.5051 77.9223C15.7419 77.8385 15.9574 77.7038 16.1364 77.5277C16.3155 77.3517 16.4538 77.1384 16.5415 76.9031C16.6293 76.6678 16.6644 76.4161 16.6443 76.1658C16.6243 75.9155 16.5496 75.6726 16.4255 75.4542L20.4512 70.8651L17.3087 70.4315L13.9676 74.8559C13.6146 75.0887 13.3592 75.4428 13.2499 75.8513C13.1406 76.2597 13.1849 76.6941 13.3744 77.072C13.5639 77.45 13.8855 77.7453 14.2782 77.902C14.6709 78.0587 15.1075 78.066 15.5051 77.9223Z" fill="#9F616A"/>
<path d="M20.3601 118.594L17.5525 118.594L16.2168 107.764L20.3607 107.764L20.3601 118.594Z" fill="#9F616A"/>
<path d="M21.0761 121.316L12.0229 121.315V121.201C12.023 120.266 12.3943 119.37 13.0551 118.709C13.7159 118.048 14.6122 117.677 15.5467 117.677H15.5469L21.0763 117.677L21.0761 121.316Z" fill="#2F2E41"/>
<path d="M35.0574 116.244L32.376 117.077L27.8889 107.13L31.8464 105.902L35.0574 116.244Z" fill="#9F616A"/>
<path d="M36.5484 118.631L27.9024 121.316L27.8684 121.206C27.5913 120.314 27.6801 119.348 28.1153 118.521C28.5504 117.694 29.2962 117.073 30.1887 116.796L30.1889 116.796L35.4697 115.156L36.5484 118.631Z" fill="#2F2E41"/>
<path d="M18.21 68.6646L14.0518 73.4269L17.3071 73.7198L18.21 68.6646Z" fill="#E6E6E6"/>
<path d="M16.5851 74.8031C16.5851 74.8031 15.1407 75.5252 14.9601 78.7751C14.7796 82.025 15.5018 90.5112 15.5018 90.5112C15.5018 90.5112 14.7797 94.3027 15.5018 97.733C16.2239 101.163 14.7797 113.62 15.6824 113.62C16.5851 113.62 21.2792 114.162 21.4598 113.62C21.6403 113.079 21.8209 104.954 21.8209 104.954C21.8209 104.954 23.2653 100.802 21.8209 98.2747C21.8209 98.2747 26.864 107.081 30.1259 113.801C30.8398 115.272 36.2644 113.621 35.3617 111.996C34.459 110.371 32.2925 102.969 32.2925 102.969C32.2925 102.969 30.6676 97.5522 27.779 95.2052L29.2234 83.6503C29.2234 83.6503 32.2927 75.8868 30.4875 74.8036C28.6823 73.7204 16.5851 74.8031 16.5851 74.8031Z" fill="#2F2E41"/>
<path d="M22.0015 45.3741C24.594 45.3741 26.6956 43.2724 26.6956 40.68C26.6956 38.0875 24.594 35.9858 22.0015 35.9858C19.409 35.9858 17.3074 38.0875 17.3074 40.68C17.3074 43.2724 19.409 45.3741 22.0015 45.3741Z" fill="#A0616A"/>
<path d="M27.2371 45.7352L21.4015 49.1655C21.4015 49.1655 19.167 50.4239 18.3323 52.5958C17.4426 54.9106 17.9598 58.1697 18.3323 58.9149C19.0544 60.3593 18.0295 63.9701 18.0295 63.9701L17.1268 72.2751C17.1268 72.2751 13.877 75.3443 16.4047 75.7054C18.9323 76.0666 23.4458 75.5248 26.154 75.7054C28.8622 75.886 31.9314 76.2471 31.0287 74.4413C30.126 72.6354 29.0428 71.3719 30.126 67.7617C30.9737 64.9362 30.937 54.3714 30.8809 49.9098C30.8732 49.2971 30.7089 48.6966 30.4036 48.1654C30.0983 47.6341 29.6621 47.1898 29.1366 46.8747L27.2371 45.7352Z" fill="#E5E5E5"/>
<path opacity="0.1" d="M24.6201 51.4225L25.1616 62.4357L19.9127 73.0653L19.0225 72.7266L24.4388 62.7966L24.6201 51.4225Z" fill="black"/>
<path opacity="0.1" d="M30.5773 64.7826V63.5184L24.4395 73.6293L30.5773 64.7826Z" fill="black"/>
<path d="M18.6698 36.3314L17.8944 36.0212C17.8944 36.0212 19.5173 34.2348 21.7745 34.3901L21.1395 33.691C21.1395 33.691 22.6915 33.0697 24.1026 34.7006C24.8443 35.558 25.7024 36.5659 26.238 37.7011H27.069L26.7223 38.4649L27.9362 39.2287L26.6901 39.092C26.8082 39.7514 26.7678 40.4294 26.5723 41.0701L26.6064 41.6738C26.6064 41.6738 25.1614 39.4378 25.1614 39.1276V39.9043C25.1614 39.9043 24.3853 39.2053 24.3853 38.7393L23.962 39.283L23.7503 38.4289L21.14 39.283L21.563 38.5836L19.9401 38.8166L20.5751 37.9625C20.5751 37.9625 18.7408 38.9721 18.6703 39.8266C18.5997 40.6811 17.6827 41.7683 17.6827 41.7683L17.2594 40.9915C17.2594 40.9915 16.6246 37.4965 18.6698 36.3314Z" fill="#2F2E41"/>
<path d="M21.7067 78.4331C21.9248 78.3086 22.113 78.1378 22.258 77.9327C22.4029 77.7277 22.5012 77.4933 22.5458 77.2462C22.5904 76.999 22.5802 76.7451 22.5161 76.5023C22.4519 76.2595 22.3353 76.0337 22.1744 75.8408L25.3216 70.61L22.152 70.7411L19.6493 75.6884C19.3433 75.9801 19.1548 76.3739 19.1197 76.7953C19.0846 77.2166 19.2053 77.6362 19.4589 77.9745C19.7125 78.3129 20.0814 78.5464 20.4957 78.6309C20.91 78.7154 21.3409 78.6451 21.7067 78.4331Z" fill="#9F616A"/>
<path d="M28.8624 48.0827L30.2164 47.8119C30.2164 47.8119 34.2786 50.7909 33.0148 56.7488C31.751 62.7067 26.1542 71.734 26.1542 71.734C26.1542 71.734 24.89 73.3589 24.5292 73.7199C24.1684 74.0808 23.446 73.7199 23.8071 74.2616C24.1683 74.8033 23.2654 75.1643 23.2654 75.1643C23.2654 75.1643 19.2934 75.1643 19.6546 73.7199C20.0157 72.2755 26.1542 61.9837 26.1542 61.9837L25.2515 52.4149C25.2515 52.4149 24.5291 47.7215 28.8624 48.0827Z" fill="#E5E5E5"/>
</g>
<defs>
<clipPath id="clip0_28_3848">
<rect width="126.828" height="121.73" fill="white" transform="translate(0.0859375)"/>
</clipPath>
</defs>
</svg>
