<svg width="25" height="25" viewBox="0 0 25 25" fill="none" xmlns="http://www.w3.org/2000/svg">
<path fill-rule="evenodd" clip-rule="evenodd" d="M12.5 22.5C6.98 22.5 2.5 18.03 2.5 12.5C2.5 6.98 6.98 2.5 12.5 2.5C18.03 2.5 22.5 6.98 22.5 12.5C22.5 18.03 18.03 22.5 12.5 22.5ZM15.69 16.21C15.81 16.28 15.94 16.32 16.08 16.32C16.33 16.32 16.58 16.19 16.72 15.95C16.93 15.6 16.82 15.14 16.46 14.92L12.9 12.8V8.18C12.9 7.76 12.56 7.43 12.15 7.43C11.74 7.43 11.4 7.76 11.4 8.18V13.23C11.4 13.49 11.54 13.73 11.77 13.87L15.69 16.21Z" fill="#34B826"/>
</svg>
