<svg width="20" height="21" viewBox="0 0 20 21" fill="none" xmlns="http://www.w3.org/2000/svg">
<path fill-rule="evenodd" clip-rule="evenodd" d="M9.85065 2.16669H14.0729C16.1919 2.16669 17.9167 3.825 17.9167 5.86415V12.2091C17.9167 12.5632 17.6169 12.8499 17.2496 12.8499C16.8806 12.8499 16.5817 12.5632 16.5817 12.2091V5.86415C16.5817 4.53333 15.4564 3.45001 14.0729 3.45001H9.85065C8.46199 3.45001 7.33235 4.53666 7.33235 5.87248V6.64831C7.33235 7.00247 7.03435 7.28914 6.66531 7.28914C6.29713 7.28914 5.99826 7.00247 5.99826 6.64831V5.87248C5.99826 3.82917 7.72651 2.16669 9.85065 2.16669ZM11.3259 9.1332C11.2015 9.2607 11.0373 9.32403 10.8723 9.32403C10.7106 9.32403 10.5481 9.26237 10.4229 9.1382L9.81253 8.53237C9.5621 8.28321 9.55961 7.87738 9.80756 7.62488C10.0547 7.37239 10.4585 7.37072 10.7106 7.61988L11.3218 8.22654C11.5722 8.47487 11.5747 8.88154 11.3259 9.1332ZM9.80938 13.3768C9.56061 13.1252 9.56144 12.7193 9.81104 12.4693L11.1378 11.1418H2.72184C2.36942 11.1418 2.08333 10.8544 2.08333 10.5002C2.08333 10.146 2.36942 9.85769 2.72184 9.85769H12.6844C12.9431 9.85769 13.1761 10.0144 13.2748 10.2552C13.3735 10.4952 13.3179 10.7719 13.1355 10.9552L10.7124 13.3785C10.588 13.5027 10.4247 13.5652 10.2613 13.5652C10.098 13.5652 9.93377 13.5027 9.80938 13.3768ZM17.2492 14.4859C16.881 14.4859 16.5821 14.7734 16.5821 15.1276C16.5821 16.4634 15.4525 17.55 14.0638 17.55H9.84155C8.45896 17.55 7.33278 16.4667 7.33278 15.1359V14.3517C7.33278 13.9976 7.03391 13.7101 6.66574 13.7101C6.29757 13.7101 5.9987 13.9976 5.9987 14.3517V15.1359C5.9987 17.175 7.72261 18.8334 9.84155 18.8334H14.0638C16.188 18.8334 17.9162 17.1709 17.9162 15.1276C17.9162 14.7734 17.6174 14.4859 17.2492 14.4859Z" fill="white"/>
</svg>
