<svg width="83" height="80" viewBox="0 0 83 80" fill="none" xmlns="http://www.w3.org/2000/svg">
<g clip-path="url(#clip0_284_1616)">
<path d="M52.5583 17.9917H30.4602C29.9566 17.9924 29.4738 18.1925 29.1177 18.5484C28.7616 18.9043 28.5613 19.3867 28.5607 19.89V68.9714L28.3075 69.0486L22.8864 70.7076C22.6295 70.7859 22.352 70.7591 22.1148 70.6331C21.8777 70.5072 21.7002 70.2923 21.6214 70.0357L5.49635 17.3982C5.41788 17.1415 5.44463 16.8641 5.57071 16.627C5.6968 16.39 5.91191 16.2127 6.16876 16.134L14.5226 13.5778L38.7405 6.16968L47.0942 3.61342C47.2214 3.57432 47.355 3.56066 47.4874 3.57322C47.6198 3.58577 47.7484 3.6243 47.866 3.6866C47.9835 3.74889 48.0875 3.83374 48.1722 3.93627C48.2568 4.0388 48.3204 4.15701 48.3593 4.28413L52.4811 17.7387L52.5583 17.9917Z" fill="#F2F2F2"/>
<path d="M57.3804 17.7387L52.4127 1.52286C52.3301 1.25267 52.195 1.00141 52.0151 0.78343C51.8352 0.565448 51.6142 0.385021 51.3645 0.252458C51.1149 0.119894 50.8415 0.0377904 50.5601 0.0108423C50.2787 -0.0161059 49.9947 0.0126293 49.7244 0.0954029L37.9795 3.68809L13.7628 11.0974L2.0179 14.6914C1.47229 14.8588 1.01545 15.2357 0.747643 15.7394C0.479838 16.2431 0.422953 16.8324 0.589475 17.378L17.568 72.7969C17.7033 73.2373 17.9762 73.6228 18.3468 73.8968C18.7174 74.1708 19.1661 74.3189 19.627 74.3193C19.8404 74.3194 20.0525 74.2874 20.2564 74.2244L28.3075 71.7618L28.5607 71.6833V71.4188L28.3075 71.496L20.1817 73.9827C19.7001 74.1294 19.1799 74.0792 18.7353 73.8432C18.2906 73.6071 17.9578 73.2045 17.8099 72.7235L0.832657 17.3033C0.759349 17.065 0.7338 16.8146 0.75747 16.5664C0.78114 16.3183 0.853564 16.0772 0.970598 15.857C1.08763 15.6368 1.24698 15.4419 1.4395 15.2834C1.63203 15.1248 1.85396 15.0058 2.09259 14.9331L13.8375 11.3391L38.0542 3.93106L49.7991 0.337111C49.9801 0.281911 50.1683 0.253765 50.3575 0.253589C50.7636 0.2545 51.1588 0.385345 51.4851 0.626958C51.8114 0.868571 52.0518 1.20826 52.1709 1.59626L57.1158 17.7387L57.1943 17.9918H57.4577L57.3804 17.7387Z" fill="#3F3D56"/>
<path d="M16.0301 16.1754C15.786 16.1752 15.5484 16.0969 15.3521 15.9519C15.1559 15.8069 15.0113 15.6028 14.9396 15.3697L13.3086 10.0456C13.2647 9.90261 13.2495 9.75236 13.2638 9.60348C13.2781 9.45459 13.3216 9.30997 13.3918 9.17788C13.462 9.04579 13.5576 8.92882 13.673 8.83365C13.7885 8.73847 13.9216 8.66696 14.0647 8.6232L36.3438 1.80687C36.6328 1.71873 36.945 1.74879 37.2119 1.89045C37.4788 2.03211 37.6785 2.27379 37.7672 2.56245L39.3983 7.88659C39.4864 8.17542 39.4563 8.48739 39.3146 8.75407C39.1728 9.02074 38.931 9.22034 38.6422 9.30907L16.363 16.1254C16.2551 16.1585 16.1429 16.1753 16.0301 16.1754Z" fill="#34B826"/>
<path d="M24.5741 5.68888C25.9728 5.68888 27.1067 4.55574 27.1067 3.15793C27.1067 1.76013 25.9728 0.626984 24.5741 0.626984C23.1754 0.626984 22.0415 1.76013 22.0415 3.15793C22.0415 4.55574 23.1754 5.68888 24.5741 5.68888Z" fill="#34B826"/>
<path d="M24.5741 4.76062C25.4598 4.76062 26.1778 4.04308 26.1778 3.15794C26.1778 2.27281 25.4598 1.55527 24.5741 1.55527C23.6884 1.55527 22.9704 2.27281 22.9704 3.15794C22.9704 4.04308 23.6884 4.76062 24.5741 4.76062Z" fill="white"/>
<path d="M76.8067 73.6726H34.0059C33.7205 73.6723 33.4469 73.5589 33.2451 73.3572C33.0433 73.1556 32.9298 72.8822 32.9295 72.597V21.3452C32.9298 21.0601 33.0433 20.7867 33.2451 20.585C33.4469 20.3833 33.7205 20.2699 34.0059 20.2696H76.8067C77.0921 20.2699 77.3657 20.3834 77.5675 20.585C77.7692 20.7867 77.8828 21.0601 77.8831 21.3452V72.597C77.8827 72.8821 77.7692 73.1555 77.5675 73.3572C77.3657 73.5588 77.0921 73.6723 76.8067 73.6726Z" fill="#E6E6E6"/>
<path d="M57.1158 17.7386H30.4602C29.8895 17.7395 29.3424 17.9664 28.9389 18.3696C28.5354 18.7729 28.3083 19.3196 28.3075 19.89V71.496L28.5608 71.4188V19.89C28.5614 19.3867 28.7617 18.9042 29.1178 18.5484C29.4738 18.1925 29.9566 17.9924 30.4602 17.9917H57.1943L57.1158 17.7386ZM80.3523 17.7386H30.4602C29.8895 17.7395 29.3424 17.9664 28.9389 18.3696C28.5354 18.7729 28.3083 19.3196 28.3075 19.89V77.8487C28.3083 78.419 28.5354 78.9657 28.9389 79.369C29.3424 79.7723 29.8895 79.9992 30.4602 80H80.3523C80.923 79.9992 81.4701 79.7723 81.8736 79.369C82.2772 78.9657 82.5042 78.419 82.5051 77.8487V19.89C82.5042 19.3196 82.2772 18.7729 81.8736 18.3696C81.4701 17.9664 80.923 17.7395 80.3523 17.7386ZM82.2518 77.8487C82.2512 78.3519 82.0509 78.8344 81.6948 79.1903C81.3387 79.5461 80.8559 79.7463 80.3523 79.7469H30.4602C29.9566 79.7463 29.4738 79.5461 29.1178 79.1903C28.7617 78.8344 28.5614 78.3519 28.5608 77.8487V19.89C28.5614 19.3867 28.7617 18.9042 29.1178 18.5484C29.4738 18.1925 29.9566 17.9924 30.4602 17.9917H80.3523C80.8559 17.9924 81.3387 18.1925 81.6948 18.5484C82.0509 18.9042 82.2512 19.3867 82.2518 19.89V77.8487Z" fill="#3F3D56"/>
<path d="M67.0562 23.3067H43.7564C43.4542 23.3064 43.1645 23.1863 42.9509 22.9728C42.7372 22.7593 42.617 22.4698 42.6167 22.1678V16.5997C42.617 16.2978 42.7372 16.0083 42.9509 15.7947C43.1645 15.5812 43.4542 15.4611 43.7564 15.4608H67.0562C67.3584 15.4611 67.6481 15.5812 67.8617 15.7947C68.0754 16.0083 68.1956 16.2978 68.1959 16.5997V22.1678C68.1956 22.4698 68.0754 22.7593 67.8617 22.9728C67.6481 23.1863 67.3584 23.3064 67.0562 23.3067Z" fill="#34B826"/>
<path d="M55.4063 15.8404C56.805 15.8404 57.9388 14.7073 57.9388 13.3095C57.9388 11.9117 56.805 10.7785 55.4063 10.7785C54.0075 10.7785 52.8737 11.9117 52.8737 13.3095C52.8737 14.7073 54.0075 15.8404 55.4063 15.8404Z" fill="#34B826"/>
<path d="M55.4063 14.8511C56.2582 14.8511 56.9489 14.1609 56.9489 13.3095C56.9489 12.4581 56.2582 11.7679 55.4063 11.7679C54.5544 11.7679 53.8637 12.4581 53.8637 13.3095C53.8637 14.1609 54.5544 14.8511 55.4063 14.8511Z" fill="white"/>
</g>
<defs>
<clipPath id="clip0_284_1616">
<rect width="82.01" height="80" fill="white" transform="translate(0.494995)"/>
</clipPath>
</defs>
</svg>
