<svg width="24" height="25" viewBox="0 0 24 25" fill="none" xmlns="http://www.w3.org/2000/svg">
<path opacity="0.4" d="M7.29619 6.946C7.29619 4.495 9.35598 2.5 11.8876 2.5H16.9199C19.4454 2.5 21.5 4.49 21.5 6.936V18.052C21.5 20.504 19.4412 22.5 16.9096 22.5H11.8773C9.35185 22.5 7.29619 20.509 7.29619 18.062V17.122V6.946Z" fill="#A0AABF"/>
<path d="M16.0374 11.9538L13.0695 9.04482C12.7627 8.74482 12.2691 8.74482 11.9634 9.04682C11.6587 9.34882 11.6597 9.83582 11.9654 10.1358L13.5905 11.7288H3.2821C2.85042 11.7288 2.5 12.0738 2.5 12.4998C2.5 12.9248 2.85042 13.2688 3.2821 13.2688H13.5905L11.9654 14.8628C11.6597 15.1628 11.6587 15.6498 11.9634 15.9518C12.1168 16.1028 12.3168 16.1788 12.518 16.1788C12.717 16.1788 12.9171 16.1028 13.0695 15.9538L16.0374 13.0448C16.1847 12.8998 16.268 12.7038 16.268 12.4998C16.268 12.2948 16.1847 12.0988 16.0374 11.9538Z" fill="#A0AABF"/>
</svg>
