<svg width="25" height="25" viewBox="0 0 25 25" fill="none" xmlns="http://www.w3.org/2000/svg">
<path fill-rule="evenodd" clip-rule="evenodd" d="M17.6798 4.91C17.6798 3.58 18.7598 2.5 20.0898 2.5C21.4198 2.5 22.4998 3.58 22.4998 4.91C22.4998 6.24 21.4198 7.32 20.0898 7.32C18.7598 7.32 17.6798 6.24 17.6798 4.91ZM13.8297 15.2593L16.7197 11.5303L16.6797 11.5503C16.8397 11.3303 16.8697 11.0503 16.7597 10.8003C16.6507 10.5503 16.4097 10.3803 16.1507 10.3603C15.8797 10.3303 15.6107 10.4503 15.4497 10.6703L13.0307 13.8003L10.2597 11.6203C10.0897 11.4903 9.88969 11.4393 9.68969 11.4603C9.49069 11.4903 9.31069 11.5993 9.18969 11.7593L6.23069 15.6103L6.16969 15.7003C5.99969 16.0193 6.07969 16.4293 6.37969 16.6503C6.51969 16.7403 6.66969 16.8003 6.83969 16.8003C7.07069 16.8103 7.28969 16.6893 7.42969 16.5003L9.93969 13.2693L12.7897 15.4103L12.8797 15.4693C13.1997 15.6393 13.5997 15.5603 13.8297 15.2593ZM15.9497 4.2803C15.9097 4.5303 15.8897 4.7803 15.8897 5.0303C15.8897 7.2803 17.7097 9.0993 19.9497 9.0993C20.1997 9.0993 20.4397 9.0703 20.6897 9.0303V17.0993C20.6897 20.4903 18.6897 22.5003 15.2897 22.5003H7.90069C4.49969 22.5003 2.49969 20.4903 2.49969 17.0993V9.7003C2.49969 6.3003 4.49969 4.2803 7.90069 4.2803H15.9497Z" fill="#34B826"/>
</svg>
